<svg xmlns="http://www.w3.org/2000/svg" width="1em" height="1em" viewBox="0 0 256 256"><path fill="#f1edff" d="M187.3 236a20.6 20.6 0 0 1-10.9-3.2L128 202.1l-44.9 28.5a21.7 21.7 0 0 1-24.5-.8a22.4 22.4 0 0 1-8.6-23.7l13.1-51.2l-43.7-36.3A20.9 20.9 0 0 1 13 96.2A20.5 20.5 0 0 1 31.1 82l56.8-3.6l21.2-53.5a20.3 20.3 0 0 1 37.8 0l21.2 53.5l56.8 3.6A20.5 20.5 0 0 1 243 96.2a20.9 20.9 0 0 1-6.4 22.4l-43.7 36.3l14.1 55.3a20.6 20.6 0 0 1-7.9 21.9a19.9 19.9 0 0 1-11.8 3.9Zm2-23.5Zm-61.3-35a19.9 19.9 0 0 1 10.8 3.1l42.8 27.1l-12.4-48.9a20.9 20.9 0 0 1 6.8-21.1l38.8-32.3l-50.5-3.2a20.5 20.5 0 0 1-17.6-12.9l-18.7-47l-18.7 47a20.5 20.5 0 0 1-17.6 12.9l-50.5 3.2L80 137.7a20.9 20.9 0 0 1 6.8 21.1l-12.4 48.9l42.8-27.1a19.9 19.9 0 0 1 10.8-3.1Zm-2 23.4Z"/></svg>